<?xml version="1.0" standalone="no"?>
<svg xmlns="http://www.w3.org/2000/svg" viewBox="0 0 117 74" width="117" height="74"><g fill="#ff5576" color="#ff5576" transform="translate(36.452 0) scale(0.44) "><svg width="100.0" height="100.0" x="0.0" y="0.0" viewBox="0 0 100 100"><path d="M66.795,17.488c5.277,1.508,8.92,3.769,8.543,6.784l-7.79,64.079c-0.125,0.753-0.376,1.256-1.005,1.759  c-11.057,6.91-22.365,6.156-34.176-0.126c-0.754-0.377-1.005-0.88-1.13-1.633l-6.534-64.079c-1.507-8.042,21.988-10.429,37.443-7.79  L63.78,5.426c1.633-0.503,3.141-0.628,4.774,0L66.795,17.488z M50.084,31.309c3.644,0,7.036-0.252,10.051-0.754l1.634-11.057  c-3.393-0.628-7.413-1.005-11.685-1.005c-11.811,0-21.486,2.89-21.486,6.407S38.274,31.309,50.084,31.309z M33.499,40.605  c-0.125,0.252-0.125,0.629-0.125,0.88c0,1.256,1.006,2.261,2.262,2.261c1.13,0,2.136-0.879,2.262-2.01  c2.638,0.628,5.151,1.005,7.79,1.257c-0.377,0.251-0.629,0.628-0.629,1.13c0,0.754,0.629,1.384,1.383,1.384  c0.753,0,1.382-0.63,1.382-1.384c0-0.377-0.125-0.754-0.377-1.005c3.016,0.251,6.031,0.126,9.046-0.125l1.005-7.538  c-8.921,1.005-18.344-0.251-27.516-3.896l0.628,8.167L33.499,40.605z M34.63,61.715c0-0.755-0.502-1.258-1.131-1.258  c-0.628,0-1.256,0.503-1.256,1.258c0,0.628,0.628,1.131,1.256,1.131C34.127,62.846,34.63,62.343,34.63,61.715z M34.63,48.271  c0-0.628-0.502-1.131-1.131-1.131c-0.502,0-1.005,0.503-1.005,1.131c0,0.502,0.502,1.006,1.005,1.006  C34.127,49.276,34.63,48.772,34.63,48.271z M34.881,55.056c0-0.126-0.251-0.377-0.377-0.377c-0.251,0-0.502,0.251-0.502,0.377  c0,0.251,0.251,0.502,0.502,0.502C34.63,55.558,34.881,55.307,34.881,55.056z M34.63,53.799c0,0.252,0.126,0.503,0.503,0.503  c0.251,0,0.502-0.251,0.502-0.503c0-0.251-0.251-0.502-0.502-0.502C34.756,53.297,34.63,53.548,34.63,53.799z M37.52,77.168  c0-1.005-0.629-1.759-1.382-1.759c-0.754,0-1.382,0.754-1.382,1.759c0,1.006,0.628,1.76,1.382,1.76  C36.891,78.928,37.52,78.174,37.52,77.168z M37.394,47.643c-0.125,0-0.251,0.125-0.251,0.251s0.125,0.251,0.251,0.251  c0.126,0,0.252-0.125,0.252-0.251S37.52,47.643,37.394,47.643z M39.53,60.457c0-0.628-0.502-1.256-1.131-1.256  c-0.753,0-1.257,0.628-1.257,1.256s0.503,1.132,1.257,1.132C39.028,61.589,39.53,61.085,39.53,60.457z M40.535,54.051  c0.502,0,1.005-0.503,1.005-1.131c0-0.503-0.502-1.005-1.005-1.005c-0.628,0-1.131,0.502-1.131,1.005  C39.404,53.548,39.907,54.051,40.535,54.051z M41.792,83.452c0-0.628-0.377-1.005-1.006-1.005c-0.502,0-0.879,0.377-0.879,1.005  c0,0.502,0.376,0.879,0.879,0.879C41.415,84.331,41.792,83.954,41.792,83.452z M43.174,61.212c0-0.755-0.502-1.257-1.13-1.257  c-0.629,0-1.257,0.502-1.257,1.257c0,0.629,0.628,1.131,1.257,1.131C42.671,62.343,43.174,61.841,43.174,61.212z M42.42,65.232  c0-0.503-0.251-0.88-0.753-0.88c-0.503,0-0.88,0.377-0.88,0.88c0,0.378,0.377,0.755,0.88,0.755  C42.169,65.987,42.42,65.61,42.42,65.232z M43.928,63.976c0.377,0,0.753-0.376,0.753-0.753c0-0.503-0.376-0.88-0.753-0.88  s-0.879,0.377-0.879,0.88C43.048,63.6,43.551,63.976,43.928,63.976z M45.184,70.008c0-0.503-0.377-0.88-1.005-0.88  c-0.502,0-0.879,0.377-0.879,0.88c0,0.628,0.377,1.005,0.879,1.005C44.807,71.013,45.184,70.636,45.184,70.008z M45.435,52.292  c0-0.252-0.251-0.503-0.502-0.503c-0.377,0-0.628,0.251-0.628,0.503c0,0.377,0.251,0.628,0.628,0.628  C45.184,52.92,45.435,52.669,45.435,52.292z M46.315,56.061c-0.503,0-1.006,0.502-1.006,1.005c0,0.502,0.503,0.879,1.006,0.879  c0.502,0,0.879-0.377,0.879-0.879C47.194,56.562,46.818,56.061,46.315,56.061z M47.948,64.855c0-0.754-0.502-1.382-1.256-1.382  c-0.753,0-1.382,0.628-1.382,1.382c0,0.755,0.629,1.258,1.382,1.258C47.446,66.113,47.948,65.61,47.948,64.855z M49.708,51.035  c0-0.502-0.377-1.005-0.88-1.005s-1.005,0.503-1.005,1.005c0,0.503,0.502,0.88,1.005,0.88S49.708,51.538,49.708,51.035z   M48.828,57.316c-0.502,0-1.005,0.377-1.005,1.005c0,0.503,0.502,0.88,1.005,0.88c0.377,0,0.88-0.377,0.88-0.88  C49.708,57.693,49.205,57.316,48.828,57.316z M48.451,67.118c0.125,0,0.377-0.251,0.377-0.503c0-0.125-0.125-0.377-0.377-0.377  c-0.251,0-0.502,0.252-0.502,0.377C47.948,66.867,48.2,67.118,48.451,67.118z M49.456,67.872c0-0.126-0.251-0.377-0.376-0.377  c-0.251,0-0.503,0.251-0.503,0.377c0,0.251,0.251,0.502,0.503,0.502C49.205,68.374,49.456,68.123,49.456,67.872z M51.466,60.708  c0-0.628-0.502-1.256-1.256-1.256c-0.629,0-1.257,0.628-1.257,1.256c0,0.756,0.628,1.258,1.257,1.258  C50.964,61.966,51.466,61.464,51.466,60.708z M50.21,45.632c0.502,0,0.879-0.377,0.879-0.881c0-0.502-0.376-0.879-0.879-0.879  c-0.503,0-0.88,0.377-0.88,0.879C49.33,45.255,49.708,45.632,50.21,45.632z M52.723,90.235c0-0.377-0.251-0.754-0.754-0.754  c-0.376,0-0.753,0.377-0.753,0.754c0,0.503,0.377,0.754,0.753,0.754C52.471,90.989,52.723,90.738,52.723,90.235z M54.482,75.409  c0-0.377-0.251-0.754-0.753-0.754c-0.378,0-0.754,0.377-0.754,0.754s0.376,0.754,0.754,0.754  C54.231,76.163,54.482,75.786,54.482,75.409z M55.738,48.02l0.251-1.634c-0.251-0.251-0.502-0.377-0.754-0.377  c-0.628,0-1.13,0.503-1.13,1.131c0,0.503,0.502,1.005,1.13,1.005C55.361,48.145,55.613,48.145,55.738,48.02z M56.869,59.703  c0-0.251-0.126-0.502-0.251-0.754c-0.377,0-0.879-0.125-1.382-0.251c-0.251,0.251-0.502,0.628-0.502,1.005  c0,0.503,0.502,1.005,1.13,1.005C56.492,60.708,56.869,60.206,56.869,59.703z M61.141,56.562c0-0.753-0.628-1.256-1.256-1.256  l-0.377,0.126l-0.377,2.135c0.251,0.126,0.502,0.252,0.754,0.252C60.513,57.819,61.141,57.316,61.141,56.562z M60.764,46.135  c0.251,0.126,0.502,0.251,0.88,0.251c0.754,0,1.256-0.502,1.256-1.256c0-0.755-0.502-1.258-1.256-1.258  c-0.252,0-0.377,0-0.629,0.126L60.764,46.135z M63.403,65.232c0-0.628-0.502-1.131-1.131-1.131c-0.628,0-1.131,0.503-1.131,1.131  c0,0.63,0.503,1.132,1.131,1.132C62.9,66.364,63.403,65.862,63.403,65.232z M69.434,32.564c-2.387,0.881-4.649,1.635-7.036,2.137  l-1.131,7.663c2.387-0.502,4.9-1.13,7.288-1.884L69.434,32.564z M65.664,87.598c0-0.503-0.377-1.005-0.754-1.005  c-0.502,0-1.005,0.502-1.005,1.005c0,0.377,0.502,0.754,1.005,0.754C65.287,88.352,65.664,87.975,65.664,87.598z M64.157,5.928  c0,0.252,0.879,0.377,1.885,0.377c1.131,0,2.01-0.125,2.01-0.377c0-0.251-0.879-0.502-2.01-0.502  C65.036,5.426,64.157,5.677,64.157,5.928z M67.298,46.889c0-0.754-0.628-1.382-1.382-1.382c-0.754,0-1.383,0.628-1.383,1.382  s0.628,1.382,1.383,1.382C66.67,48.271,67.298,47.643,67.298,46.889z M65.162,29.424c4.021-1.132,6.408-2.765,6.408-4.523  c0-1.634-1.884-3.016-5.151-4.146L65.162,29.424z"></path></svg></g><path fill="#0b0cac" fill-rule="nonzero" d="M6.98 7.78L7.06 6.86Q7.58 6.82 7.78 6.82Q7.97 6.82 8.40 6.89L8.40 6.89Q8.38 7.61 8.38 8.71Q8.38 9.82 8.40 10.34L8.40 10.34Q8.04 10.42 7.70 10.42Q7.37 10.42 7.06 10.37L7.06 10.37L6.98 9.53Q5.69 9.48 4.99 9.48Q4.30 9.48 2.95 9.53L2.95 9.53Q3.00 13.18 3.17 14.98L3.17 14.98L4.49 15.07L4.54 15.65Q4.54 16.03 4.46 16.39L4.46 16.39Q3.84 16.37 2.22 16.37Q0.60 16.37 0.10 16.39L0.10 16.39Q0.02 16.03 0.02 15.71Q0.02 15.38 0.07 15.05L0.07 15.05L0.96 14.98Q1.15 12.62 1.15 8.93Q1.15 5.23 0.86 2.42L0.86 2.42L0.05 2.35Q0 2.04 0 1.70Q0 1.37 0.07 1.01L0.07 1.01Q0.67 1.03 4.34 1.03Q8.02 1.03 9.10 0.82L9.10 0.82L9.22 0.94Q9.02 3.05 9 4.34L9 4.34Q8.76 4.37 8.40 4.37Q8.04 4.37 7.66 4.30L7.66 4.30L7.58 2.66Q6.36 2.59 5.20 2.59Q4.03 2.59 3.10 2.66L3.10 2.66Q2.95 4.25 2.95 7.87L2.95 7.87L4.13 7.87Q5.45 7.87 6.98 7.78L6.98 7.78ZM11.28 15.05L12.12 14.98Q12.34 12.62 12.34 10.67Q12.34 8.71 12.14 6.60L12.14 6.60L11.26 6.53Q11.18 6.12 11.18 5.75Q11.18 5.38 11.21 5.18L11.21 5.18Q12.60 5.14 14.18 4.97L14.18 4.97L14.30 5.09Q14.09 6.50 14.09 9.84Q14.09 13.18 14.30 14.98L14.30 14.98L15.19 15.05Q15.24 15.43 15.24 15.71Q15.24 15.98 15.17 16.39L15.17 16.39Q14.33 16.37 13.22 16.37Q12.12 16.37 11.30 16.39L11.30 16.39Q11.23 16.03 11.23 15.65Q11.23 15.26 11.28 15.05L11.28 15.05ZM14.54 1.66L14.54 1.66Q14.54 3.14 13.01 3.14L13.01 3.14Q11.81 3.14 11.81 1.92L11.81 1.92Q11.81 0.41 13.34 0.41L13.34 0.41Q14.54 0.41 14.54 1.66ZM23.40 14.45L23.47 13.30Q23.86 13.22 24.19 13.22Q24.53 13.22 24.82 13.25L24.82 13.25Q24.86 14.40 25.03 16.42L25.03 16.42L24.91 16.54Q23.40 16.32 21.06 16.32Q18.72 16.32 16.78 16.46L16.78 16.46Q16.63 16.10 16.61 15.60L16.61 15.60Q17.64 13.99 19.72 11.05Q21.79 8.11 22.66 6.84L22.66 6.84Q19.87 6.89 18.26 7.01L18.26 7.01L18.19 8.26Q17.81 8.33 17.47 8.33Q17.14 8.33 16.85 8.30L16.85 8.30Q16.80 7.15 16.63 5.14L16.63 5.14L16.75 5.02Q18.26 5.23 20.93 5.23Q23.59 5.23 24.89 5.09L24.89 5.09Q25.01 5.33 25.01 6.00L25.01 6.00Q24.05 7.82 22.21 10.57Q20.38 13.32 19.66 14.62L19.66 14.62Q21.89 14.59 23.40 14.45L23.40 14.45ZM33 14.45L33.07 13.30Q33.46 13.22 33.79 13.22Q34.13 13.22 34.42 13.25L34.42 13.25Q34.46 14.40 34.63 16.42L34.63 16.42L34.51 16.54Q33 16.32 30.66 16.32Q28.32 16.32 26.38 16.46L26.38 16.46Q26.23 16.10 26.21 15.60L26.21 15.60Q27.24 13.99 29.32 11.05Q31.39 8.11 32.26 6.84L32.26 6.84Q29.47 6.89 27.86 7.01L27.86 7.01L27.79 8.26Q27.41 8.33 27.07 8.33Q26.74 8.33 26.45 8.30L26.45 8.30Q26.40 7.15 26.23 5.14L26.23 5.14L26.35 5.02Q27.86 5.23 30.53 5.23Q33.19 5.23 34.49 5.09L34.49 5.09Q34.61 5.33 34.61 6.00L34.61 6.00Q33.65 7.82 31.81 10.57Q29.98 13.32 29.26 14.62L29.26 14.62Q31.49 14.59 33 14.45L33 14.45ZM42.79 6.58L41.78 6.50Q41.74 6.26 41.74 5.87Q41.74 5.47 41.81 5.16L41.81 5.16Q42.53 5.18 43.81 5.18Q45.10 5.18 45.79 5.16L45.79 5.16Q45.86 5.47 45.86 5.83Q45.86 6.19 45.82 6.50L45.82 6.50L45.10 6.58Q44.45 8.33 43.43 11.40Q42.41 14.47 41.89 15.91Q41.38 17.35 40.93 18.24Q40.49 19.13 39.96 19.92L39.96 19.92Q38.95 21.41 37.57 21.41Q36.19 21.41 35.04 20.64L35.04 20.64Q35.14 19.25 35.83 18.65L35.83 18.65Q36.55 19.63 37.58 19.63L37.58 19.63Q38.69 19.63 40.03 16.51L40.03 16.51Q38.81 12.22 36.17 6.58L36.17 6.58L35.38 6.50Q35.33 6.22 35.33 5.84Q35.33 5.47 35.40 5.16L35.40 5.16Q36.10 5.18 37.48 5.18Q38.86 5.18 39.58 5.16L39.58 5.16Q39.65 5.47 39.65 5.84Q39.65 6.22 39.60 6.50L39.60 6.50L38.62 6.58Q39.07 9.24 40.97 13.70L40.97 13.70L41.06 13.70Q42.26 9.82 42.79 6.58L42.79 6.58ZM53.14 14.98L54.10 14.90Q54.31 12.46 54.31 8.41Q54.31 4.37 54.07 2.47L54.07 2.47L53.14 2.40Q53.06 2.11 53.06 1.66Q53.06 1.20 53.09 1.06L53.09 1.06Q54.62 1.03 55.82 0.84Q57.02 0.65 58.37 0.65L58.37 0.65Q60.79 0.65 62.05 1.76Q63.31 2.88 63.31 5.14Q63.31 7.39 61.78 8.54L61.78 8.54Q64.34 9.58 64.34 12.22L64.34 12.22Q64.34 14.45 62.95 15.59Q61.56 16.73 58.85 16.73L58.85 16.73Q57.34 16.73 56.04 16.54L56.04 16.54Q53.76 16.37 53.09 16.32L53.09 16.32Q53.06 16.18 53.06 15.74Q53.06 15.31 53.14 14.98L53.14 14.98ZM57.50 7.44L57.50 7.44Q58.03 7.80 59.05 7.80Q60.07 7.80 60.65 7.12Q61.22 6.43 61.22 5.05Q61.22 3.67 60.46 2.84Q59.69 2.02 58.27 2.02L58.27 2.02Q57.38 2.02 56.30 2.45L56.30 2.45Q56.11 4.44 56.11 8.26Q56.11 12.07 56.30 14.52L56.30 14.52Q57.72 15.07 58.87 15.07L58.87 15.07Q62.26 15.07 62.26 12.22L62.26 12.22Q62.26 9.82 60.02 9.29L60.02 9.29Q59.30 9.41 58.62 9.41Q57.94 9.41 57.00 9.05L57.00 9.05Q57.00 7.94 57.50 7.44ZM67.27 13.27L67.27 13.27L67.30 10.70Q67.30 8.57 67.10 6.60L67.10 6.60L66.22 6.53Q66.14 6.14 66.14 5.74Q66.14 5.33 66.17 5.18L66.17 5.18Q67.39 5.16 69.14 4.97L69.14 4.97L69.26 5.09Q69.05 6.50 69.05 10.15L69.05 10.15L69.05 11.28Q69.05 13.30 69.42 14.15Q69.79 15.00 70.68 15.00L70.68 15.00Q71.93 15.00 73.39 13.54L73.39 13.54Q73.44 12.98 73.44 11.40L73.44 11.40L73.44 10.70Q73.44 8.57 73.25 6.60L73.25 6.60L72.36 6.53Q72.29 6.12 72.29 5.72Q72.29 5.33 72.31 5.18L72.31 5.18Q73.54 5.16 75.29 4.97L75.29 4.97L75.41 5.09Q75.19 6.50 75.19 10.15L75.19 10.15L75.19 10.92Q75.19 12.89 75.41 14.76L75.41 14.76L76.30 14.81Q76.34 15.34 76.34 15.59Q76.34 15.84 76.27 16.20L76.27 16.20Q75.34 16.25 73.66 16.44L73.66 16.44Q73.46 16.01 73.37 15.24L73.37 15.24Q71.57 16.73 70.06 16.73Q68.54 16.73 67.91 15.89Q67.27 15.05 67.27 13.27ZM85.66 9.86L85.66 9.86Q85.66 6.43 83.62 6.43L83.62 6.43Q82.15 6.43 80.83 7.99L80.83 7.99L80.83 14.45Q81.94 15.00 83.16 15.00L83.16 15.00Q85.66 15.00 85.66 9.86ZM80.83 6.53L80.83 6.53Q82.51 4.90 84.22 4.90Q85.92 4.90 86.81 6.29Q87.70 7.68 87.70 10.18L87.70 10.18Q87.70 13.56 86.53 15.14Q85.37 16.73 82.87 16.73L82.87 16.73Q81.31 16.73 78.72 16.10L78.72 16.10Q79.10 13.75 79.10 8.47Q79.10 3.19 78.98 1.63L78.98 1.63L78.02 1.56Q77.95 1.27 77.95 0.82Q77.95 0.36 77.98 0.22L77.98 0.22Q80.11 0.12 81.10 0L81.10 0L81.19 0.12Q80.86 3.00 80.83 6.53ZM97.20 9.86L97.20 9.86Q97.20 6.43 95.16 6.43L95.16 6.43Q93.70 6.43 92.38 7.99L92.38 7.99L92.38 14.45Q93.48 15.00 94.70 15.00L94.70 15.00Q97.20 15.00 97.20 9.86ZM92.38 6.53L92.38 6.53Q94.06 4.90 95.76 4.90Q97.46 4.90 98.35 6.29Q99.24 7.68 99.24 10.18L99.24 10.18Q99.24 13.56 98.08 15.14Q96.91 16.73 94.42 16.73L94.42 16.73Q92.86 16.73 90.26 16.10L90.26 16.10Q90.65 13.75 90.65 8.47Q90.65 3.19 90.53 1.63L90.53 1.63L89.57 1.56Q89.50 1.27 89.50 0.82Q89.50 0.36 89.52 0.22L89.52 0.22Q91.66 0.12 92.64 0L92.64 0L92.74 0.12Q92.40 3.00 92.38 6.53ZM102.67 10.80L102.67 10.80L102.67 7.51Q102.67 3.19 102.55 1.63L102.55 1.63L101.59 1.56Q101.52 1.25 101.52 0.83Q101.52 0.41 101.54 0.22L101.54 0.22Q103.73 0.10 104.66 0L104.66 0L104.76 0.12Q104.42 2.98 104.42 6.26L104.42 6.26L104.42 10.22Q104.42 13.18 104.64 14.98L104.64 14.98L105.53 15.05Q105.58 15.43 105.58 15.71Q105.58 15.98 105.50 16.39L105.50 16.39Q104.66 16.37 103.56 16.37Q102.46 16.37 101.64 16.39L101.64 16.39Q101.57 16.03 101.57 15.76Q101.57 15.48 101.62 15.05L101.62 15.05L102.46 14.98Q102.67 12.72 102.67 10.80ZM113.83 6.58L112.82 6.50Q112.78 6.26 112.78 5.87Q112.78 5.47 112.85 5.16L112.85 5.16Q113.57 5.18 114.85 5.18Q116.14 5.18 116.83 5.16L116.83 5.16Q116.90 5.47 116.90 5.83Q116.90 6.19 116.86 6.50L116.86 6.50L116.14 6.58Q115.49 8.33 114.47 11.40Q113.45 14.47 112.93 15.91Q112.42 17.35 111.97 18.24Q111.53 19.13 111 19.92L111 19.92Q109.99 21.41 108.61 21.41Q107.23 21.41 106.08 20.64L106.08 20.64Q106.18 19.25 106.87 18.65L106.87 18.65Q107.59 19.63 108.62 19.63L108.62 19.63Q109.73 19.63 111.07 16.51L111.07 16.51Q109.85 12.22 107.21 6.58L107.21 6.58L106.42 6.50Q106.37 6.22 106.37 5.84Q106.37 5.47 106.44 5.16L106.44 5.16Q107.14 5.18 108.52 5.18Q109.90 5.18 110.62 5.16L110.62 5.16Q110.69 5.47 110.69 5.84Q110.69 6.22 110.64 6.50L110.64 6.50L109.66 6.58Q110.11 9.24 112.01 13.70L112.01 13.70L112.10 13.70Q113.30 9.82 113.83 6.58L113.83 6.58Z" transform="translate(0, 52)"></path></svg>